<svg width="24" height="24" viewBox="0 0 24 24" fill="none" xmlns="http://www.w3.org/2000/svg">
<g id="Bell 29">
<path id="Vector" d="M18 11.1428V8.57141C18 6.98011 17.3679 5.45399 16.2427 4.32877C15.1174 3.20355 13.5913 2.57141 12 2.57141C10.4087 2.57141 8.88259 3.20355 7.75738 4.32877C6.63216 5.45399 6.00002 6.98011 6.00002 8.57141V11.1428C6.00002 13.9714 3.42859 14.6571 3.42859 16.2857C3.42859 17.7428 6.77145 18.8571 12 18.8571C17.2286 18.8571 20.5714 17.7428 20.5714 16.2857C20.5714 14.6571 18 13.9714 18 11.1428Z" stroke="#171A1F" stroke-width="2.05714" stroke-miterlimit="10" stroke-linecap="square"/>
<path id="Vector_2" d="M12 20.5714C11.1334 20.5714 10.3191 20.5423 9.55286 20.4857C9.71622 21.0068 10.0417 21.4622 10.4818 21.7855C10.922 22.1088 11.4539 22.2831 12 22.2831C12.5461 22.2831 13.078 22.1088 13.5182 21.7855C13.9583 21.4622 14.2838 21.0068 14.4471 20.4857C13.6809 20.5423 12.8666 20.5714 12 20.5714Z" fill="#171A1F"/>
</g>
</svg>
